<svg xmlns="http://www.w3.org/2000/svg" width="23.887" height="16.796" viewBox="0 0 23.887 16.796">
  <g id="email" transform="translate(0 -76)">
    <g id="Group_216" data-name="Group 216" transform="translate(1.224 85.389)">
      <g id="Group_215" data-name="Group 215">
        <path id="Path_1562251" data-name="Path 1562251" d="M40.48,277.251l-2,2.007a2.214,2.214,0,0,1-3.068,0l-2-2.007-7.186,7.209a2.079,2.079,0,0,0,.876.2H46.79a2.077,2.077,0,0,0,.876-.2Z" transform="translate(-26.226 -277.251)" fill="#00649e"/>
      </g>
    </g>
    <g id="Group_218" data-name="Group 218" transform="translate(1.224 76)">
      <g id="Group_217" data-name="Group 217" transform="translate(0 0)">
        <path id="Path_1562252" data-name="Path 1562252" d="M46.792,76H27.1a2.078,2.078,0,0,0-.876.2l7.678,7.7h0l2.5,2.5a.84.84,0,0,0,1.086,0l2.5-2.5v0h0l7.678-7.7A2.077,2.077,0,0,0,46.792,76Z" transform="translate(-26.228 -76)" fill="#00649e"/>
      </g>
    </g>
    <g id="Group_220" data-name="Group 220" transform="translate(0 77.176)">
      <g id="Group_219" data-name="Group 219" transform="translate(0 0)">
        <path id="Path_1562253" data-name="Path 1562253" d="M.223,101.212a2.074,2.074,0,0,0-.223.923v12.6a2.073,2.073,0,0,0,.223.923l7.2-7.221Z" transform="translate(0 -101.212)" fill="#00649e"/>
      </g>
    </g>
    <g id="Group_222" data-name="Group 222" transform="translate(16.466 77.176)">
      <g id="Group_221" data-name="Group 221" transform="translate(0 0)">
        <path id="Path_1562254" data-name="Path 1562254" d="M360.131,101.21l-7.2,7.222,7.2,7.221a2.074,2.074,0,0,0,.223-.923v-12.6A2.074,2.074,0,0,0,360.131,101.21Z" transform="translate(-352.933 -101.21)" fill="#00649e"/>
      </g>
    </g>
  </g>
</svg>
