<svg xmlns="http://www.w3.org/2000/svg" xmlns:xlink="http://www.w3.org/1999/xlink" width="25" height="17" viewBox="0 0 25 17">
  <defs>
    <clipPath id="clip-path">
      <rect id="Rectangle_206459" data-name="Rectangle 206459" width="25" height="17" rx="3" transform="translate(10892 -10524)" fill="#fff"/>
    </clipPath>
  </defs>
  <g id="Mask_Group_1064179" data-name="Mask Group 1064179" transform="translate(-10892 10524)" clip-path="url(#clip-path)">
    <path id="Path_1622946" data-name="Path 1622946" d="M176.792,93.944H158.9V88.277h17.448a.447.447,0,0,1,.447.447Z" transform="translate(10740.682 -10612.277)" fill="#73af00"/>
    <path id="Path_1622947" data-name="Path 1622947" d="M176.345,317.576H158.9v-5.667h17.9v5.219A.447.447,0,0,1,176.345,317.576Z" transform="translate(10740.682 -10824.576)" fill="#464655"/>
    <path id="Path_1622948" data-name="Path 1622948" d="M158.9,200.091h17.895v5.666H158.9Z" transform="translate(10740.68 -10718.425)" fill="#f5f5f5"/>
    <path id="Path_1622949" data-name="Path 1622949" d="M8.053,105.276H.447A.447.447,0,0,1,0,104.828V88.723a.447.447,0,0,1,.447-.447H8.053Z" transform="translate(10891.525 -10612.276)" fill="#ff4b55"/>
  </g>
</svg>
